<svg width="16" height="16" viewBox="0 0 16 16" fill="none" xmlns="http://www.w3.org/2000/svg">
<g clip-path="url(#clip0_105_40)">
<rect width="16" height="16" rx="8" fill="#283C72"/>
<path d="M6.12376 4.39654V0.439654C6.12376 0.172679 6.3531 2.40212e-05 6.89815 0H9.10217C9.87655 -4.39015e-05 9.87655 0.231502 9.87655 0.439654V4.39654H9.10217H6.89815H6.12376Z" fill="white"/>
<path d="M5.64722 14.2889V13.6293H6.77901H9.2213H10.3531V14.2889C10.3531 14.8933 9.2213 14.7835 9.2213 14.2889V13.6293H6.77901V14.2889C6.77901 14.7835 5.64722 14.8933 5.64722 14.2889Z" fill="white"/>
<path d="M6.89815 6.24366e-09C6.3531 2.40212e-05 6.12376 0.172679 6.12376 0.439654C6.12376 0.70663 6.12376 4.39654 6.12376 4.39654H6.89815M6.89815 6.24366e-09V4.39654M6.89815 6.24366e-09H9.10217M6.89815 4.39654H9.10217M9.10217 4.39654V6.24366e-09M9.10217 4.39654H9.87655C9.87655 4.39654 9.87655 0.647807 9.87655 0.439654C9.87655 0.231502 9.87655 -4.39015e-05 9.10217 6.24366e-09M6.77901 13.6293H5.64722C5.64722 13.6293 5.64722 13.6846 5.64722 14.2889C5.64722 14.8933 6.77901 14.7835 6.77901 14.2889C6.77901 13.7943 6.77901 13.6293 6.77901 13.6293ZM6.77901 13.6293H9.2213M9.2213 13.6293C9.2213 13.6293 9.2213 13.7943 9.2213 14.2889C9.2213 14.7835 10.3531 14.8933 10.3531 14.2889C10.3531 13.6846 10.3531 13.6293 10.3531 13.6293H9.2213Z" stroke="black" stroke-width="0.2"/>
<rect x="4.1" y="3.39004" width="7.8" height="10.1529" rx="1.9" fill="url(#paint0_linear_105_40)" stroke="black" stroke-width="0.2"/>
<path d="M5.041 11.9986V5.07079H4C4.00774 4.23094 4.09262 3.89705 4.46517 3.68384C4.60861 3.38903 5.11319 3.35475 6.082 3.31445H7.04865C7.04865 3.31445 6.1124 3.46946 9.26436 3.39196C12.4163 3.31445 11.2819 7.77769 10.7783 8.01095C12.5533 8.18686 12.5511 13.6573 9.72551 13.6573H8.98194H8.01529H7.04865H6.082C5.0118 13.5811 4.46186 13.5308 4.46517 13.2879C4.10585 13.1987 4.01427 12.8928 4 11.9986H5.041Z" fill="white" stroke="black" stroke-width="0.2"/>
<path d="M7.08576 7.30923V4.91406H8.27501C9.57834 4.91406 9.71433 7.30923 8.27501 7.30923H7.08576Z" fill="url(#paint1_linear_105_40)"/>
<path d="M6.97168 11.9998V9.20541H8.27501C10.4472 9.20541 10.0852 11.9998 8.27501 11.9998H6.97168Z" fill="url(#paint2_linear_105_40)"/>
<path d="M7.08576 7.30923V4.91406H8.27501C9.57834 4.91406 9.71433 7.30923 8.27501 7.30923H7.08576Z" stroke="black" stroke-width="0.2"/>
<path d="M6.97168 11.9998V9.20541H8.27501C10.4472 9.20541 10.0852 11.9998 8.27501 11.9998H6.97168Z" stroke="black" stroke-width="0.2"/>
<rect x="6.23511" y="3.05469" width="0.588235" height="0.470588" fill="white"/>
<rect x="9.17651" y="3.17285" width="0.588235" height="0.470588" fill="white"/>
<rect x="9.29419" y="13.5254" width="0.941177" height="0.235294" fill="white"/>
<rect x="5.76489" y="13.5254" width="0.941177" height="0.235294" fill="white"/>
<path d="M9.78674 3.54843C9.81585 3.54479 9.75732 3.43911 9.75732 3.41934C9.75732 3.37168 9.75732 3.32403 9.75732 3.27637" stroke="white" stroke-width="0.2" stroke-linecap="round"/>
<path d="M9.1543 3.47467C9.1543 3.44535 9.15586 3.42085 9.169 3.39378C9.17859 3.37404 9.20453 3.34993 9.20577 3.32761C9.20796 3.28819 9.21385 3.23865 9.24253 3.20996" stroke="white" stroke-width="0.2" stroke-linecap="round"/>
<path d="M10.1912 13.7687C10.1912 13.7037 10.2088 13.6513 10.2202 13.5889C10.2244 13.5656 10.2206 13.4942 10.2206 13.5179C10.2206 13.5519 10.2132 13.5834 10.2132 13.6179C10.2132 13.655 10.2159 13.6887 10.221 13.7246C10.2252 13.7542 10.2426 13.7252 10.2426 13.7098C10.2426 13.6927 10.2426 13.6755 10.2426 13.6584C10.2426 13.6039 10.25 13.5459 10.25 13.4893" stroke="white" stroke-width="0.2" stroke-linecap="round"/>
<path d="M9.25 13.5186C9.27419 13.5401 9.28221 13.5479 9.30147 13.5757C9.31788 13.5994 9.32426 13.6224 9.33252 13.6493C9.34282 13.6828 9.32088 13.7607 9.36029 13.7686" stroke="white" stroke-width="0.2" stroke-linecap="round"/>
<path d="M5.76477 13.7826C5.76477 13.7474 5.77213 13.7156 5.77213 13.6797C5.77213 13.6625 5.77213 13.6454 5.77213 13.6282C5.77213 13.6031 5.75693 13.5913 5.74598 13.5694C5.73031 13.5381 5.71323 13.5106 5.69083 13.4844C5.67798 13.4694 5.60943 13.4316 5.61036 13.4297" stroke="white" stroke-width="0.2" stroke-linecap="round"/>
<path d="M6.75721 13.5107C6.74006 13.5472 6.72903 13.5747 6.70942 13.61C6.69131 13.6426 6.67588 13.6883 6.66162 13.724" stroke="white" stroke-width="0.2" stroke-linecap="round"/>
<path d="M4.42651 13.1729C4.48395 13.1729 4.53338 13.2284 4.57766 13.2537C4.63898 13.2888 4.67605 13.3345 4.75004 13.3493" stroke="white" stroke-width="0.2" stroke-linecap="round"/>
<path d="M4.47803 3.88614C4.47803 3.84464 4.51307 3.78562 4.54339 3.75747C4.56961 3.73312 4.61038 3.69305 4.61038 3.6582" stroke="white" stroke-width="0.2" stroke-linecap="round"/>
<path d="M4.47803 3.79791C4.53577 3.79791 4.52047 3.74811 4.55156 3.71703C4.57438 3.6942 4.62929 3.6582 4.66185 3.6582" stroke="white" stroke-width="0.2" stroke-linecap="round"/>
<path d="M6.08813 3.45203C6.13926 3.45203 6.18822 3.4456 6.2115 3.39321C6.22533 3.3621 6.22784 3.33975 6.22784 3.30334C6.22784 3.27633 6.25197 3.25784 6.25725 3.23145" stroke="white" stroke-width="0.2" stroke-linecap="round"/>
<path d="M6.74268 3.20996C6.78004 3.21826 6.79038 3.33721 6.79782 3.36846C6.8093 3.41664 6.83276 3.46181 6.86768 3.49673" stroke="white" stroke-width="0.2" stroke-linecap="round"/>
<path d="M6.94116 0.172852H9.05881" stroke="black" stroke-width="0.2"/>
<rect x="6.97144" y="0.228516" width="2.05714" height="3.08571" fill="#283C72"/>
</g>
<defs>
<linearGradient id="paint0_linear_105_40" x1="8" y1="3.29004" x2="8" y2="13.643" gradientUnits="userSpaceOnUse">
<stop offset="0.432292" stop-color="#2D3049"/>
<stop offset="1" stop-color="#D1F366" stop-opacity="0.98"/>
</linearGradient>
<linearGradient id="paint1_linear_105_40" x1="8.28576" y1="4.91406" x2="8.28576" y2="11.9998" gradientUnits="userSpaceOnUse">
<stop offset="0.432292" stop-color="#2D3049"/>
<stop offset="1" stop-color="#D1F366" stop-opacity="0.98"/>
</linearGradient>
<linearGradient id="paint2_linear_105_40" x1="8.28576" y1="4.91406" x2="8.28576" y2="11.9998" gradientUnits="userSpaceOnUse">
<stop offset="0.432292" stop-color="#2D3049"/>
<stop offset="1" stop-color="#D1F366" stop-opacity="0.98"/>
</linearGradient>
<clipPath id="clip0_105_40">
<rect width="16" height="16" rx="8" fill="white"/>
</clipPath>
</defs>
</svg>
